<mxfile host="app.diagrams.net" agent="Mozilla/5.0 (Windows NT 10.0; Win64; x64) AppleWebKit/537.36 (KHTML, like Gecko) Chrome/128.0.0.0 Safari/537.36" version="24.7.14">
  <diagram name="Side-1" id="W_k8Ss-MGU6GW1lRPi8L">
    <mxGraphModel dx="868" dy="457" grid="1" gridSize="10" guides="1" tooltips="1" connect="1" arrows="1" fold="1" page="1" pageScale="1" pageWidth="827" pageHeight="1169" math="0" shadow="0">
      <root>
        <mxCell id="0" />
        <mxCell id="1" parent="0" />
        <mxCell id="TNwv7y-9BegkWqFrcFQc-1" value="" style="pointerEvents=1;verticalLabelPosition=bottom;shadow=0;dashed=0;align=center;html=1;verticalAlign=top;shape=mxgraph.electrical.signal_sources.source;aspect=fixed;points=[[0.5,0,0],[1,0.5,0],[0.5,1,0],[0,0.5,0]];elSignalType=ac;" vertex="1" parent="1">
          <mxGeometry x="170" y="255" width="60" height="60" as="geometry" />
        </mxCell>
        <mxCell id="TNwv7y-9BegkWqFrcFQc-2" value="" style="verticalLabelPosition=bottom;shadow=0;dashed=0;align=center;html=1;verticalAlign=top;shape=mxgraph.electrical.abstract.operational_amp_1;" vertex="1" parent="1">
          <mxGeometry x="480" y="225" width="98" height="90" as="geometry" />
        </mxCell>
        <mxCell id="TNwv7y-9BegkWqFrcFQc-3" value="" style="pointerEvents=1;verticalLabelPosition=bottom;shadow=0;dashed=0;align=center;html=1;verticalAlign=top;shape=mxgraph.electrical.resistors.resistor_1;" vertex="1" parent="1">
          <mxGeometry x="270" y="230" width="100" height="20" as="geometry" />
        </mxCell>
        <mxCell id="TNwv7y-9BegkWqFrcFQc-4" style="edgeStyle=orthogonalEdgeStyle;rounded=0;orthogonalLoop=1;jettySize=auto;html=1;exitX=1;exitY=0.5;exitDx=0;exitDy=0;exitPerimeter=0;entryX=0;entryY=0.165;entryDx=0;entryDy=0;entryPerimeter=0;endArrow=none;endFill=0;" edge="1" parent="1" source="TNwv7y-9BegkWqFrcFQc-3" target="TNwv7y-9BegkWqFrcFQc-2">
          <mxGeometry relative="1" as="geometry" />
        </mxCell>
        <mxCell id="TNwv7y-9BegkWqFrcFQc-6" style="edgeStyle=orthogonalEdgeStyle;rounded=0;orthogonalLoop=1;jettySize=auto;html=1;exitX=0;exitY=0.5;exitDx=0;exitDy=0;exitPerimeter=0;endArrow=oval;endFill=1;" edge="1" parent="1" source="TNwv7y-9BegkWqFrcFQc-5">
          <mxGeometry relative="1" as="geometry">
            <mxPoint x="440" y="240" as="targetPoint" />
          </mxGeometry>
        </mxCell>
        <mxCell id="TNwv7y-9BegkWqFrcFQc-5" value="" style="pointerEvents=1;verticalLabelPosition=bottom;shadow=0;dashed=0;align=center;html=1;verticalAlign=top;shape=mxgraph.electrical.resistors.resistor_2;" vertex="1" parent="1">
          <mxGeometry x="479" y="150" width="100" height="20" as="geometry" />
        </mxCell>
        <mxCell id="TNwv7y-9BegkWqFrcFQc-7" style="edgeStyle=orthogonalEdgeStyle;rounded=0;orthogonalLoop=1;jettySize=auto;html=1;exitX=1;exitY=0.5;exitDx=0;exitDy=0;exitPerimeter=0;entryX=1;entryY=0.5;entryDx=0;entryDy=0;entryPerimeter=0;endArrow=none;endFill=0;" edge="1" parent="1" source="TNwv7y-9BegkWqFrcFQc-5" target="TNwv7y-9BegkWqFrcFQc-2">
          <mxGeometry relative="1" as="geometry">
            <Array as="points">
              <mxPoint x="640" y="160" />
              <mxPoint x="640" y="270" />
            </Array>
          </mxGeometry>
        </mxCell>
        <mxCell id="TNwv7y-9BegkWqFrcFQc-8" value="" style="pointerEvents=1;verticalLabelPosition=bottom;shadow=0;dashed=0;align=center;html=1;verticalAlign=top;shape=mxgraph.electrical.signal_sources.signal_ground;" vertex="1" parent="1">
          <mxGeometry x="417" y="350" width="45" height="30" as="geometry" />
        </mxCell>
        <mxCell id="TNwv7y-9BegkWqFrcFQc-9" style="edgeStyle=orthogonalEdgeStyle;rounded=0;orthogonalLoop=1;jettySize=auto;html=1;exitX=0;exitY=0.835;exitDx=0;exitDy=0;exitPerimeter=0;entryX=0.5;entryY=0;entryDx=0;entryDy=0;entryPerimeter=0;endArrow=none;endFill=0;" edge="1" parent="1" source="TNwv7y-9BegkWqFrcFQc-2" target="TNwv7y-9BegkWqFrcFQc-8">
          <mxGeometry relative="1" as="geometry" />
        </mxCell>
        <mxCell id="TNwv7y-9BegkWqFrcFQc-10" style="edgeStyle=orthogonalEdgeStyle;rounded=0;orthogonalLoop=1;jettySize=auto;html=1;entryX=0;entryY=0.5;entryDx=0;entryDy=0;entryPerimeter=0;endArrow=none;endFill=0;" edge="1" parent="1" source="TNwv7y-9BegkWqFrcFQc-1" target="TNwv7y-9BegkWqFrcFQc-3">
          <mxGeometry relative="1" as="geometry">
            <Array as="points">
              <mxPoint x="200" y="240" />
            </Array>
          </mxGeometry>
        </mxCell>
        <mxCell id="TNwv7y-9BegkWqFrcFQc-14" value="Virtual&lt;br&gt;&lt;div&gt;GND&lt;/div&gt;" style="text;html=1;align=center;verticalAlign=middle;resizable=0;points=[];autosize=1;strokeColor=none;fillColor=none;" vertex="1" parent="1">
          <mxGeometry x="380" y="200" width="60" height="40" as="geometry" />
        </mxCell>
        <mxCell id="TNwv7y-9BegkWqFrcFQc-15" value="&lt;font style=&quot;font-size: 16px;&quot;&gt;Z&lt;sub&gt;DUT&lt;/sub&gt;&lt;/font&gt;" style="text;html=1;align=center;verticalAlign=middle;resizable=0;points=[];autosize=1;strokeColor=none;fillColor=none;" vertex="1" parent="1">
          <mxGeometry x="300" y="190" width="60" height="40" as="geometry" />
        </mxCell>
        <mxCell id="TNwv7y-9BegkWqFrcFQc-16" value="&lt;div style=&quot;text-align: center;&quot;&gt;&lt;span style=&quot;background-color: initial; font-size: 16px; text-wrap: nowrap;&quot;&gt;R&lt;sub&gt;Shunt&lt;/sub&gt;&lt;/span&gt;&lt;/div&gt;" style="text;whiteSpace=wrap;html=1;" vertex="1" parent="1">
          <mxGeometry x="499" y="110" width="60" height="40" as="geometry" />
        </mxCell>
        <mxCell id="TNwv7y-9BegkWqFrcFQc-17" value="&lt;font style=&quot;font-size: 16px;&quot;&gt;V&lt;sub&gt;shunt&lt;/sub&gt;&lt;/font&gt;" style="text;html=1;align=center;verticalAlign=middle;resizable=0;points=[];autosize=1;strokeColor=none;fillColor=none;" vertex="1" parent="1">
          <mxGeometry x="635" y="250" width="70" height="40" as="geometry" />
        </mxCell>
        <mxCell id="TNwv7y-9BegkWqFrcFQc-18" value="" style="pointerEvents=1;verticalLabelPosition=bottom;shadow=0;dashed=0;align=center;html=1;verticalAlign=top;shape=mxgraph.electrical.signal_sources.signal_ground;" vertex="1" parent="1">
          <mxGeometry x="177.5" y="350" width="45" height="30" as="geometry" />
        </mxCell>
        <mxCell id="TNwv7y-9BegkWqFrcFQc-19" style="edgeStyle=orthogonalEdgeStyle;rounded=0;orthogonalLoop=1;jettySize=auto;html=1;entryX=0.5;entryY=1;entryDx=0;entryDy=0;entryPerimeter=0;endArrow=none;endFill=0;" edge="1" parent="1" source="TNwv7y-9BegkWqFrcFQc-18" target="TNwv7y-9BegkWqFrcFQc-1">
          <mxGeometry relative="1" as="geometry" />
        </mxCell>
        <mxCell id="TNwv7y-9BegkWqFrcFQc-21" value="&lt;font style=&quot;font-size: 16px;&quot;&gt;V&lt;sub&gt;DUT&lt;/sub&gt;&lt;/font&gt;" style="text;html=1;align=center;verticalAlign=middle;resizable=0;points=[];autosize=1;strokeColor=none;fillColor=none;" vertex="1" parent="1">
          <mxGeometry x="177.5" y="200" width="60" height="40" as="geometry" />
        </mxCell>
        <mxCell id="TNwv7y-9BegkWqFrcFQc-22" value="" style="endArrow=classic;html=1;rounded=0;" edge="1" parent="1">
          <mxGeometry width="50" height="50" relative="1" as="geometry">
            <mxPoint x="260" y="269.66" as="sourcePoint" />
            <mxPoint x="310" y="269.66" as="targetPoint" />
          </mxGeometry>
        </mxCell>
        <mxCell id="TNwv7y-9BegkWqFrcFQc-23" value="i&lt;sub&gt;DUT&lt;/sub&gt;" style="text;html=1;align=center;verticalAlign=middle;resizable=0;points=[];autosize=1;strokeColor=none;fillColor=none;" vertex="1" parent="1">
          <mxGeometry x="260" y="280" width="50" height="30" as="geometry" />
        </mxCell>
        <mxCell id="TNwv7y-9BegkWqFrcFQc-25" value="" style="endArrow=classic;html=1;rounded=0;" edge="1" parent="1">
          <mxGeometry width="50" height="50" relative="1" as="geometry">
            <mxPoint x="608" y="189.60000000000002" as="sourcePoint" />
            <mxPoint x="559" y="189.94" as="targetPoint" />
          </mxGeometry>
        </mxCell>
        <mxCell id="TNwv7y-9BegkWqFrcFQc-26" value="i&lt;sub&gt;shunt&lt;/sub&gt;" style="text;html=1;align=center;verticalAlign=middle;resizable=0;points=[];autosize=1;strokeColor=none;fillColor=none;" vertex="1" parent="1">
          <mxGeometry x="559" y="195" width="50" height="30" as="geometry" />
        </mxCell>
      </root>
    </mxGraphModel>
  </diagram>
</mxfile>
